<mxfile host="app.diagrams.net" modified="2024-05-30T04:32:14.948Z" agent="Mozilla/5.0 (Windows NT 10.0; Win64; x64) AppleWebKit/537.36 (KHTML, like Gecko) Chrome/125.0.0.0 Safari/537.36" etag="bbOpsCyK4WwyfqvLdfG2" version="24.4.10" type="github">
  <diagram name="Page-1" id="bnuOR79JYo8FfRdz7kM4">
    <mxGraphModel dx="882" dy="458" grid="1" gridSize="10" guides="1" tooltips="1" connect="1" arrows="1" fold="1" page="1" pageScale="1" pageWidth="827" pageHeight="1169" math="0" shadow="0">
      <root>
        <mxCell id="0" />
        <mxCell id="1" parent="0" />
        <mxCell id="HpKkr5umcqQvZqvKwtWS-14" style="edgeStyle=orthogonalEdgeStyle;rounded=0;orthogonalLoop=1;jettySize=auto;html=1;exitX=0.5;exitY=1;exitDx=0;exitDy=0;entryX=0.5;entryY=1;entryDx=0;entryDy=0;" edge="1" parent="1" source="HpKkr5umcqQvZqvKwtWS-4" target="HpKkr5umcqQvZqvKwtWS-3">
          <mxGeometry relative="1" as="geometry" />
        </mxCell>
        <mxCell id="HpKkr5umcqQvZqvKwtWS-12" style="edgeStyle=orthogonalEdgeStyle;rounded=0;orthogonalLoop=1;jettySize=auto;html=1;exitX=0.5;exitY=1;exitDx=0;exitDy=0;entryX=0.5;entryY=1;entryDx=0;entryDy=0;" edge="1" parent="1" source="HpKkr5umcqQvZqvKwtWS-4" target="HpKkr5umcqQvZqvKwtWS-3">
          <mxGeometry relative="1" as="geometry" />
        </mxCell>
        <mxCell id="HpKkr5umcqQvZqvKwtWS-1" value="Librarians" style="swimlane;childLayout=stackLayout;horizontal=1;startSize=50;horizontalStack=0;rounded=1;fontSize=14;fontStyle=0;strokeWidth=2;resizeParent=0;resizeLast=1;shadow=0;dashed=0;align=center;arcSize=4;whiteSpace=wrap;html=1;" vertex="1" parent="1">
          <mxGeometry x="510" y="650" width="160" height="120" as="geometry" />
        </mxCell>
        <mxCell id="HpKkr5umcqQvZqvKwtWS-2" value="+Employee ID(PK)&lt;div&gt;+Name&lt;/div&gt;&lt;div&gt;+Phone number&lt;/div&gt;&lt;div&gt;+Employee Email&lt;/div&gt;" style="align=left;strokeColor=none;fillColor=none;spacingLeft=4;fontSize=12;verticalAlign=top;resizable=0;rotatable=0;part=1;html=1;" vertex="1" parent="HpKkr5umcqQvZqvKwtWS-1">
          <mxGeometry y="50" width="160" height="70" as="geometry" />
        </mxCell>
        <mxCell id="HpKkr5umcqQvZqvKwtWS-3" value="Loans" style="swimlane;childLayout=stackLayout;horizontal=1;startSize=50;horizontalStack=0;rounded=1;fontSize=14;fontStyle=0;strokeWidth=2;resizeParent=0;resizeLast=1;shadow=0;dashed=0;align=center;arcSize=4;whiteSpace=wrap;html=1;" vertex="1" parent="1">
          <mxGeometry x="254" y="740" width="160" height="140" as="geometry" />
        </mxCell>
        <mxCell id="HpKkr5umcqQvZqvKwtWS-4" value="+Loan date(PK)&lt;div&gt;+Return date&lt;/div&gt;&lt;div&gt;+Member ID(PK)(FK)&lt;/div&gt;&lt;div&gt;+Barcode(PK)(FK)&lt;/div&gt;&lt;div&gt;+Staff ID(FK)&lt;/div&gt;" style="align=left;strokeColor=none;fillColor=none;spacingLeft=4;fontSize=12;verticalAlign=top;resizable=0;rotatable=0;part=1;html=1;" vertex="1" parent="HpKkr5umcqQvZqvKwtWS-3">
          <mxGeometry y="50" width="160" height="90" as="geometry" />
        </mxCell>
        <mxCell id="HpKkr5umcqQvZqvKwtWS-5" value="Books" style="swimlane;childLayout=stackLayout;horizontal=1;startSize=50;horizontalStack=0;rounded=1;fontSize=14;fontStyle=0;strokeWidth=2;resizeParent=0;resizeLast=1;shadow=0;dashed=0;align=center;arcSize=4;whiteSpace=wrap;html=1;" vertex="1" parent="1">
          <mxGeometry x="30" y="735" width="160" height="150" as="geometry" />
        </mxCell>
        <mxCell id="HpKkr5umcqQvZqvKwtWS-6" value="+Barcode(PK)&lt;div&gt;+Title&lt;/div&gt;&lt;div&gt;+Author&lt;/div&gt;&lt;div&gt;+Publication year&lt;/div&gt;&lt;div&gt;+Genre&lt;/div&gt;&lt;div&gt;+ISBN&lt;/div&gt;" style="align=left;strokeColor=none;fillColor=none;spacingLeft=4;fontSize=12;verticalAlign=top;resizable=0;rotatable=0;part=1;html=1;" vertex="1" parent="HpKkr5umcqQvZqvKwtWS-5">
          <mxGeometry y="50" width="160" height="100" as="geometry" />
        </mxCell>
        <mxCell id="HpKkr5umcqQvZqvKwtWS-7" value="Members" style="swimlane;childLayout=stackLayout;horizontal=1;startSize=50;horizontalStack=0;rounded=1;fontSize=14;fontStyle=0;strokeWidth=2;resizeParent=0;resizeLast=1;shadow=0;dashed=0;align=center;arcSize=4;whiteSpace=wrap;html=1;" vertex="1" parent="1">
          <mxGeometry x="510" y="790" width="160" height="120" as="geometry" />
        </mxCell>
        <mxCell id="HpKkr5umcqQvZqvKwtWS-8" value="+Member ID(PK)&lt;div&gt;+Name&lt;/div&gt;&lt;div&gt;+Address&amp;nbsp;&lt;/div&gt;&lt;div&gt;+phone number&lt;/div&gt;" style="align=left;strokeColor=none;fillColor=none;spacingLeft=4;fontSize=12;verticalAlign=top;resizable=0;rotatable=0;part=1;html=1;" vertex="1" parent="HpKkr5umcqQvZqvKwtWS-7">
          <mxGeometry y="50" width="160" height="70" as="geometry" />
        </mxCell>
        <mxCell id="HpKkr5umcqQvZqvKwtWS-10" value="" style="endArrow=baseDash;html=1;rounded=0;exitX=1;exitY=0.25;exitDx=0;exitDy=0;entryX=0;entryY=0.25;entryDx=0;entryDy=0;startArrow=ERmany;startFill=0;endFill=0;" edge="1" parent="1" source="HpKkr5umcqQvZqvKwtWS-4" target="HpKkr5umcqQvZqvKwtWS-8">
          <mxGeometry relative="1" as="geometry">
            <mxPoint x="254" y="790" as="sourcePoint" />
            <mxPoint x="414" y="790" as="targetPoint" />
          </mxGeometry>
        </mxCell>
        <mxCell id="HpKkr5umcqQvZqvKwtWS-11" value="" style="edgeStyle=entityRelationEdgeStyle;fontSize=12;html=1;endArrow=ERzeroToMany;endFill=1;rounded=0;entryX=0;entryY=0.5;entryDx=0;entryDy=0;exitX=1;exitY=0.5;exitDx=0;exitDy=0;" edge="1" parent="1" source="HpKkr5umcqQvZqvKwtWS-6" target="HpKkr5umcqQvZqvKwtWS-4">
          <mxGeometry width="100" height="100" relative="1" as="geometry">
            <mxPoint x="210" y="830" as="sourcePoint" />
            <mxPoint x="310" y="730" as="targetPoint" />
          </mxGeometry>
        </mxCell>
        <mxCell id="HpKkr5umcqQvZqvKwtWS-16" value="" style="edgeStyle=entityRelationEdgeStyle;fontSize=12;html=1;endArrow=ERzeroToMany;endFill=1;rounded=0;exitX=1.028;exitY=0.115;exitDx=0;exitDy=0;exitPerimeter=0;entryX=0;entryY=0.25;entryDx=0;entryDy=0;" edge="1" parent="1" source="HpKkr5umcqQvZqvKwtWS-4" target="HpKkr5umcqQvZqvKwtWS-2">
          <mxGeometry width="100" height="100" relative="1" as="geometry">
            <mxPoint x="250" y="700" as="sourcePoint" />
            <mxPoint x="390" y="630" as="targetPoint" />
            <Array as="points">
              <mxPoint x="400" y="800" />
              <mxPoint x="270" y="660" />
              <mxPoint x="320" y="680" />
            </Array>
          </mxGeometry>
        </mxCell>
      </root>
    </mxGraphModel>
  </diagram>
</mxfile>
